#N canvas 827 239 527 327 12;
#N canvas 733 172 450 300 ringing_tone 0;
#X obj 153 250 osc~ 400;
#X obj 241 250 osc~ 450;
#X obj 226 398 *~;
#X obj 329 359 vline~;
#X msg 334 299 0.1 10 \, 0 10 390;
#X obj 329 235 metro 3000;
#X obj 405 270 delay 600;
#X obj 329 171 loadbang;
#X obj 329 200 bng 25 250 50 0 empty empty empty 17 7 0 10 #191919 #e1e1e1 #e1e1e1;
#X obj 226 436 outlet~;
#X connect 0 0 2 0;
#X connect 1 0 2 0;
#X connect 2 0 9 0;
#X connect 3 0 2 1;
#X connect 4 0 3 0;
#X connect 5 0 6 0;
#X connect 5 0 4 0;
#X connect 6 0 4 0;
#X connect 7 0 8 0;
#X connect 8 0 5 0;
#X restore -172 45 pd ringing_tone;
#X obj -172 418 bela_pitchshift~, f 51;
#X obj -172 331 bela_filtereddelay~, f 52;
#X obj -172 640 throw~ left;
#X obj 164 640 throw~ right;
#X obj -37 157 r ringing_tone_delay;
#X obj 31 187 r ringing_tone_fb;
#X obj 99 213 r ringing_tone_filter_freq;
#X obj 167 239 r ringing_tone_filter_res;
#X obj -4 461 r ringing_tone_delay_pp;
#X obj 164 461 r ringing_tone_fb_pp;
#X obj 178 769 catch~ left;
#X obj 261 769 catch~ right;
#X floatatom -104 228 5 0 0 0 - - - 12;
#X obj -105 128 r ringing_tone_dry_mix;
#X floatatom -35 242 7 0 0 0 - - - 10;
#X floatatom 33 257 5 0 0 0 - - - 12;
#X floatatom -5 388 5 0 0 0 - - - 12;
#X obj -172 574 *~;
#X obj 164 574 *~;
#X obj -104 -228 loadbang;
#N canvas 733 172 450 300 inter_dial_tone 1;
#X obj 168 206 osc~ 350;
#X obj 168 306 *~;
#X obj 242 286 vline~;
#X msg 246 242 0.1 10 \, 0 10 740;
#X obj 349 206 osc~ 440;
#X obj 366 309 *~ 0.0707;
#X obj 256 209 metro 1500;
#X obj 256 140 loadbang;
#X obj 256 169 bng 25 250 50 0 empty empty empty 17 7 0 10 #191919 #e1e1e1 #e1e1e1;
#X obj 289 399 outlet~;
#X connect 0 0 1 0;
#X connect 1 0 9 0;
#X connect 2 0 1 1;
#X connect 3 0 2 0;
#X connect 4 0 5 0;
#X connect 5 0 9 0;
#X connect 6 0 3 0;
#X connect 7 0 8 0;
#X connect 8 0 6 0;
#X restore 210 280 pd inter_dial_tone;
#X obj 355 418 bela_pitchshift~, f 51;
#X obj 355 331 bela_filtereddelay~, f 52;
#X obj 355 646 throw~ left;
#X obj 497 646 throw~ right;
#X obj 355 577 *~;
#X obj 594 577 *~;
#N canvas 733 172 450 300 unknown 0;
#X obj 163 516 osc~ 950;
#X obj 300 516 osc~ 1400;
#X obj 424 516 osc~ 1800;
#X obj 254 474 vline~;
#X msg 254 442 0.158 10 \, 0 10 320;
#X obj 376 335 metro 3990;
#X obj 399 380 delay 1330;
#X obj 521 410 delay 1330;
#X obj 385 474 vline~;
#X msg 385 442 0.158 10 \, 0 10 320;
#X obj 520 474 vline~;
#X msg 520 442 0.158 10 \, 0 10 320;
#X obj 226 574 *~;
#X obj 340 582 *~;
#X obj 464 574 *~;
#X obj 330 651 outlet~;
#X obj 378 261 loadbang;
#X obj 378 290 bng 25 250 50 0 empty empty empty 17 7 0 10 #191919 #e1e1e1 #e1e1e1;
#X connect 0 0 12 0;
#X connect 1 0 13 0;
#X connect 2 0 14 0;
#X connect 3 0 12 1;
#X connect 4 0 3 0;
#X connect 5 0 6 0;
#X connect 5 0 4 0;
#X connect 6 0 7 0;
#X connect 6 0 9 0;
#X connect 7 0 11 0;
#X connect 8 0 13 1;
#X connect 9 0 8 0;
#X connect 10 0 14 1;
#X connect 11 0 10 0;
#X connect 12 0 15 0;
#X connect 13 0 15 0;
#X connect 14 0 15 0;
#X connect 16 0 17 0;
#X connect 17 0 5 0;
#X restore 739 290 pd unknown;
#X obj 770 426 bela_pitchshift~, f 51;
#X obj 770 520 bela_pingpong~, f 51;
#X obj 770 339 bela_filtereddelay~, f 52;
#X obj 770 654 throw~ left;
#X obj 883 654 throw~ right;
#X obj 770 585 *~;
#X obj 995 585 *~;
#N canvas 733 172 450 300 call_waiting 0;
#X obj 295 332 bng 25 250 50 0 empty empty empty 17 7 0 10 #191919 #e1e1e1 #e1e1e1;
#X obj 146 467 osc~ 400;
#X obj 234 503 vline~;
#X msg 256 467 0.1 10 \, 0 10 100;
#X obj 197 568 *~;
#X obj 293 374 metro 2100;
#X obj 194 637 outlet~;
#X obj 295 298 loadbang;
#X connect 0 0 5 0;
#X connect 1 0 4 0;
#X connect 2 0 4 1;
#X connect 3 0 2 0;
#X connect 4 0 6 0;
#X connect 5 0 3 0;
#X connect 7 0 0 0;
#X restore 1302 247 pd call_waiting;
#X obj 1302 654 throw~ left;
#X obj 1429 654 throw~ right;
#X obj 1302 585 *~;
#N canvas 733 172 450 300 random_movement 0;
#X obj 158 135 random 100;
#X obj 158 169 > 60;
#X obj 158 198 tgl 25 0 empty empty empty 17 7 0 10 #e3dfd9 #5a5a5a #5a5a5a 0 1;
#X obj 158 106 metro 1000;
#X obj 132 242 spigot;
#X obj 249 42 loadbang;
#X obj 43 161 random 100;
#X obj 43 132 metro 100;
#X obj 43 242 line;
#X obj 43 216 pack;
#X floatatom 28 62 5 0 0 0 - - - 12;
#X obj 43 271 * 0.01;
#X obj 28 22 inlet rate of change;
#X floatatom 171 319 13 0 0 0 - - - 12;
#X obj 171 291 line;
#X msg 171 260 \$1 1000;
#X obj 321 242 sig~;
#X obj 321 271 *~;
#X obj 367 291 snapshot~;
#X obj 321 92 metro 10;
#X obj 367 350 outlet;
#X obj 367 320 change;
#X connect 0 0 1 0;
#X connect 1 0 2 0;
#X connect 2 0 4 1;
#X connect 2 0 7 0;
#X connect 3 0 0 0;
#X connect 4 0 15 0;
#X connect 5 0 3 0;
#X connect 5 0 19 0;
#X connect 6 0 9 0;
#X connect 7 0 6 0;
#X connect 8 0 11 0;
#X connect 9 0 8 0;
#X connect 10 0 7 1;
#X connect 10 0 9 1;
#X connect 11 0 4 0;
#X connect 12 0 10 0;
#X connect 13 0 16 0;
#X connect 14 0 13 0;
#X connect 15 0 14 0;
#X connect 16 0 17 0;
#X connect 16 0 17 1;
#X connect 17 0 18 0;
#X connect 18 0 21 0;
#X connect 19 0 18 0;
#X connect 21 0 20 0;
#X restore 552 751 pd random_movement;
#X floatatom 552 780 11 0 0 0 - - - 16;
#X floatatom 552 816 12 0 0 0 - - - 16;
#X obj 552 849 + 0.7;
#X obj 552 912 s overdrive;
#X msg 552 722 4000;
#X obj 552 693 loadbang;
#N canvas 733 172 450 300 random_movement 0;
#X obj 158 135 random 100;
#X obj 158 169 > 60;
#X obj 158 198 tgl 25 0 empty empty empty 17 7 0 10 #e3dfd9 #5a5a5a #5a5a5a 0 1;
#X obj 158 106 metro 1000;
#X obj 132 242 spigot;
#X obj 249 42 loadbang;
#X obj 43 161 random 100;
#X obj 43 132 metro 100;
#X obj 43 242 line;
#X obj 43 216 pack;
#X floatatom 28 62 5 0 0 0 - - - 12;
#X obj 43 271 * 0.01;
#X obj 28 22 inlet rate of change;
#X floatatom 171 319 13 0 0 0 - - - 12;
#X obj 171 291 line;
#X obj 321 242 sig~;
#X obj 321 271 *~;
#X obj 367 291 snapshot~;
#X obj 321 92 metro 10;
#X obj 367 350 outlet;
#X obj 367 320 change;
#X msg 171 260 \$1 10000;
#X connect 0 0 1 0;
#X connect 1 0 2 0;
#X connect 2 0 4 1;
#X connect 2 0 7 0;
#X connect 3 0 0 0;
#X connect 4 0 21 0;
#X connect 5 0 3 0;
#X connect 5 0 18 0;
#X connect 6 0 9 0;
#X connect 7 0 6 0;
#X connect 8 0 11 0;
#X connect 9 0 8 0;
#X connect 10 0 7 1;
#X connect 10 0 9 1;
#X connect 11 0 4 0;
#X connect 12 0 10 0;
#X connect 13 0 15 0;
#X connect 14 0 13 0;
#X connect 15 0 16 0;
#X connect 15 0 16 1;
#X connect 16 0 17 0;
#X connect 17 0 20 0;
#X connect 18 0 17 0;
#X connect 20 0 19 0;
#X connect 21 0 14 0;
#X restore 751 751 pd random_movement;
#X floatatom 751 780 11 0 0 0 - - - 16;
#X floatatom 751 816 12 0 0 0 - - - 16;
#X obj 751 693 loadbang;
#X obj 751 954 s inter_tone_transpose;
#X obj 518 369 r inter_tone_transpose;
#X obj 751 912 clip -5 5;
#X msg 751 722 10000;
#N canvas 733 172 450 300 random_movement 0;
#X obj 158 135 random 100;
#X obj 158 169 > 60;
#X obj 158 198 tgl 25 0 empty empty empty 17 7 0 10 #e3dfd9 #5a5a5a #5a5a5a 0 1;
#X obj 158 106 metro 1000;
#X obj 132 242 spigot;
#X obj 249 42 loadbang;
#X obj 43 161 random 100;
#X obj 43 132 metro 100;
#X obj 43 242 line;
#X obj 43 216 pack;
#X floatatom 28 62 5 0 0 0 - - - 12;
#X obj 43 271 * 0.01;
#X obj 28 22 inlet rate of change;
#X floatatom 171 319 13 0 0 0 - - - 12;
#X obj 171 291 line;
#X obj 321 242 sig~;
#X obj 321 271 *~;
#X obj 367 291 snapshot~;
#X obj 321 92 metro 10;
#X obj 367 350 outlet;
#X obj 367 320 change;
#X msg 171 260 \$1 10000;
#X connect 0 0 1 0;
#X connect 1 0 2 0;
#X connect 2 0 4 1;
#X connect 2 0 7 0;
#X connect 3 0 0 0;
#X connect 4 0 21 0;
#X connect 5 0 3 0;
#X connect 5 0 18 0;
#X connect 6 0 9 0;
#X connect 7 0 6 0;
#X connect 8 0 11 0;
#X connect 9 0 8 0;
#X connect 10 0 7 1;
#X connect 10 0 9 1;
#X connect 11 0 4 0;
#X connect 12 0 10 0;
#X connect 13 0 15 0;
#X connect 14 0 13 0;
#X connect 15 0 16 0;
#X connect 15 0 16 1;
#X connect 16 0 17 0;
#X connect 17 0 20 0;
#X connect 18 0 17 0;
#X connect 20 0 19 0;
#X connect 21 0 14 0;
#X restore 1412 412 pd random_movement;
#X obj 1412 354 loadbang;
#X msg 1412 383 10000;
#X obj 1412 467 clip 0 1;
#X obj 552 883 clip 0 0.8;
#X obj 365 157 r inter_tone_dry_mix;
#X obj 433 186 r inter_tone_delay;
#X obj 501 216 r inter_tone_fb;
#X obj 569 242 r inter_tone_filter_freq;
#X obj 637 268 r inter_tone_filter_res;
#X obj 523 448 r inter_tone_delay_pp;
#X obj 682 470 r inter_tone_fb_pp;
#X obj 928 383 r unknown_transpose;
#X obj 930 464 r unknown_delay_pp;
#X obj 1069 464 r unknown_fb_pp;
#X obj 838 157 r unknown_dry_mix;
#X obj 906 186 r unknown_delay;
#X obj 974 216 r unknown_fb;
#X obj 1042 242 r unknown_filter_freq;
#X obj 1115 268 r unknown_filter_res;
#N canvas 733 172 450 300 hum 0;
#X obj 155 117 noise~;
#X obj 239 121 phasor~ 100;
#X floatatom 336 117 5 0 0 0 - - - 12;
#X obj 205 295 *~;
#X obj 276 203 sig~;
#X obj 276 232 lop~ 10;
#X obj 205 319 clip~ -1 1;
#X obj 205 217 lop~ 70;
#X obj 205 246 lop~ 70;
#X obj 205 353 outlet~;
#X obj 336 91 inlet volume;
#X connect 0 0 7 0;
#X connect 1 0 7 0;
#X connect 2 0 4 0;
#X connect 3 0 6 0;
#X connect 4 0 5 0;
#X connect 5 0 3 1;
#X connect 6 0 9 0;
#X connect 7 0 8 0;
#X connect 8 0 3 0;
#X connect 10 0 2 0;
#X restore 1215 461 pd hum noise;
#X obj 199 961 dac~;
#N canvas 733 172 450 300 random_movement 0;
#X obj 158 135 random 100;
#X obj 158 169 > 60;
#X obj 158 198 tgl 25 0 empty empty empty 17 7 0 10 #e3dfd9 #5a5a5a #5a5a5a 0 1;
#X obj 158 106 metro 1000;
#X obj 132 242 spigot;
#X obj 249 42 loadbang;
#X obj 43 161 random 100;
#X obj 43 132 metro 100;
#X obj 43 242 line;
#X obj 43 216 pack;
#X floatatom 28 62 5 0 0 0 - - - 12;
#X obj 43 271 * 0.01;
#X obj 28 22 inlet rate of change;
#X floatatom 171 319 13 0 0 0 - - - 12;
#X obj 171 291 line;
#X obj 321 242 sig~;
#X obj 321 271 *~;
#X obj 367 291 snapshot~;
#X obj 321 92 metro 10;
#X obj 367 350 outlet;
#X obj 367 320 change;
#X msg 171 260 \$1 10000;
#X connect 0 0 1 0;
#X connect 1 0 2 0;
#X connect 2 0 4 1;
#X connect 2 0 7 0;
#X connect 3 0 0 0;
#X connect 4 0 21 0;
#X connect 5 0 3 0;
#X connect 5 0 18 0;
#X connect 6 0 9 0;
#X connect 7 0 6 0;
#X connect 8 0 11 0;
#X connect 9 0 8 0;
#X connect 10 0 7 1;
#X connect 10 0 9 1;
#X connect 11 0 4 0;
#X connect 12 0 10 0;
#X connect 13 0 15 0;
#X connect 14 0 13 0;
#X connect 15 0 16 0;
#X connect 15 0 16 1;
#X connect 16 0 17 0;
#X connect 17 0 20 0;
#X connect 18 0 17 0;
#X connect 20 0 19 0;
#X connect 21 0 14 0;
#X restore 974 761 pd random_movement;
#X obj 974 703 loadbang;
#X msg 974 732 10000;
#N canvas 733 172 450 300 random_movement 0;
#X obj 158 135 random 100;
#X obj 158 169 > 60;
#X obj 158 198 tgl 25 0 empty empty empty 17 7 0 10 #e3dfd9 #5a5a5a #5a5a5a 0 1;
#X obj 158 106 metro 1000;
#X obj 132 242 spigot;
#X obj 249 42 loadbang;
#X obj 43 161 random 100;
#X obj 43 132 metro 100;
#X obj 43 242 line;
#X obj 43 216 pack;
#X floatatom 28 62 5 0 0 0 - - - 12;
#X obj 43 271 * 0.01;
#X obj 28 22 inlet rate of change;
#X floatatom 171 319 13 0 0 0 - - - 12;
#X obj 171 291 line;
#X obj 321 242 sig~;
#X obj 321 271 *~;
#X obj 367 291 snapshot~;
#X obj 321 92 metro 10;
#X obj 367 350 outlet;
#X obj 367 320 change;
#X msg 171 260 \$1 10000;
#X connect 0 0 1 0;
#X connect 1 0 2 0;
#X connect 2 0 4 1;
#X connect 2 0 7 0;
#X connect 3 0 0 0;
#X connect 4 0 21 0;
#X connect 5 0 3 0;
#X connect 5 0 18 0;
#X connect 6 0 9 0;
#X connect 7 0 6 0;
#X connect 8 0 11 0;
#X connect 9 0 8 0;
#X connect 10 0 7 1;
#X connect 10 0 9 1;
#X connect 11 0 4 0;
#X connect 12 0 10 0;
#X connect 13 0 15 0;
#X connect 14 0 13 0;
#X connect 15 0 16 0;
#X connect 15 0 16 1;
#X connect 16 0 17 0;
#X connect 17 0 20 0;
#X connect 18 0 17 0;
#X connect 20 0 19 0;
#X connect 21 0 14 0;
#X restore 1192 761 pd random_movement;
#X obj 1192 703 loadbang;
#X msg 1192 732 10000;
#N canvas 733 172 450 300 random_movement 0;
#X obj 158 135 random 100;
#X obj 158 169 > 60;
#X obj 158 198 tgl 25 0 empty empty empty 17 7 0 10 #e3dfd9 #5a5a5a #5a5a5a 0 1;
#X obj 158 106 metro 1000;
#X obj 132 242 spigot;
#X obj 249 42 loadbang;
#X obj 43 161 random 100;
#X obj 43 132 metro 100;
#X obj 43 242 line;
#X obj 43 216 pack;
#X floatatom 28 62 5 0 0 0 - - - 12;
#X obj 43 271 * 0.01;
#X obj 28 22 inlet rate of change;
#X floatatom 171 319 13 0 0 0 - - - 12;
#X obj 171 291 line;
#X obj 321 242 sig~;
#X obj 321 271 *~;
#X obj 367 291 snapshot~;
#X obj 321 92 metro 10;
#X obj 367 350 outlet;
#X obj 367 320 change;
#X msg 171 260 \$1 10000;
#X connect 0 0 1 0;
#X connect 1 0 2 0;
#X connect 2 0 4 1;
#X connect 2 0 7 0;
#X connect 3 0 0 0;
#X connect 4 0 21 0;
#X connect 5 0 3 0;
#X connect 5 0 18 0;
#X connect 6 0 9 0;
#X connect 7 0 6 0;
#X connect 8 0 11 0;
#X connect 9 0 8 0;
#X connect 10 0 7 1;
#X connect 10 0 9 1;
#X connect 11 0 4 0;
#X connect 12 0 10 0;
#X connect 13 0 15 0;
#X connect 14 0 13 0;
#X connect 15 0 16 0;
#X connect 15 0 16 1;
#X connect 16 0 17 0;
#X connect 17 0 20 0;
#X connect 18 0 17 0;
#X connect 20 0 19 0;
#X connect 21 0 14 0;
#X restore 1511 761 pd random_movement;
#X obj 1511 703 loadbang;
#X msg 1511 732 10000;
#X obj 1511 790 * 0.3;
#X obj 1192 849 clip 0 1;
#X obj 974 790 * 0.3;
#X obj 974 849 clip 0 1;
#X obj 751 849 * 3;
#X obj 751 879 - 1.5;
#X obj 1327 296 phasor~ 30;
#X obj 1321 412 lop~ 30;
#X obj 962 919 loadbang;
#X obj 962 1023 metro 5000;
#X obj 962 1052 tgl 25 0 empty empty empty 17 7 0 10 #e3dfd9 #5a5a5a #5a5a5a 0 1;
#X obj 962 1086 sig~;
#X obj -130 549 r~ ringing_tone_volume;
#X obj 1394 536 r~ call_waiting_volume;
#X obj 1412 520 s~ call_waiting_volume;
#X obj -158 -180 t b b b, f 82;
#X obj 962 1142 s~ ringing_tone_volume;
#X obj 962 943 bng 25 250 50 0 empty empty empty 17 7 0 10 #e3dfd9 #5a5a5a #5a5a5a;
#X obj 1132 930 loadbang;
#X obj 1132 1052 tgl 25 0 empty empty empty 17 7 0 10 #e3dfd9 #5a5a5a #5a5a5a 0 1;
#X obj 1132 1086 sig~;
#X obj 1132 954 bng 25 250 50 0 empty empty empty 17 7 0 10 #e3dfd9 #5a5a5a #5a5a5a;
#X obj 1318 930 loadbang, f 9;
#X obj 1318 1052 tgl 25 0 empty empty empty 17 7 0 10 #e3dfd9 #5a5a5a #5a5a5a 0 1;
#X obj 1318 1086 sig~;
#X obj 1318 954 bng 25 250 50 0 empty empty empty 17 7 0 10 #e3dfd9 #5a5a5a #5a5a5a;
#X obj 1132 1023 metro 7000;
#X obj 1318 1023 metro 10600;
#X obj 1132 1142 s~ inter_tone_volume;
#X obj 1318 1142 s~ unknown_volume;
#X obj 450 545 r~ inter_tone_volume;
#X obj 865 553 s~ unknown_volume;
#X obj 962 1115 lop~ 0.1;
#X obj 1132 1115 lop~ 0.1;
#X obj 1318 1115 lop~ 0.1;
#X obj 881 879 s inter_tone_fb;
#X obj 1192 883 s unknown_fb;
#X obj 1511 883 s ringing_tone_fb;
#X obj 1020 937 metro 10000;
#X obj 1020 966 random 3000;
#X obj 1215 954 random 3000;
#X obj 1397 925 metro 10000;
#X obj 1397 954 random 3000;
#X obj 1215 925 metro 20000;
#X obj 1397 984 + 3000;
#X obj 1192 819 + 0.1;
#X obj 995 883 s inter_tone_fb_pp;
#X obj 1292 883 s unknown_fb_pp;
#X obj 1636 883 s ringing_tone_fb_pp;
#X obj 355 610 lop~ 100;
#X obj 546 610 lop~ 100;
#X obj 770 618 lop~ 100;
#X obj 939 618 lop~ 100;
#X obj 1215 984 + 10000;
#X obj 1020 984 + 7000;
#X obj -172 605 lop~ 5000;
#X obj 164 605 lop~ 5000;
#N canvas 733 172 450 300 random_movement 0;
#X obj 158 135 random 100;
#X obj 158 169 > 60;
#X obj 158 198 tgl 25 0 empty empty empty 17 7 0 10 #e3dfd9 #5a5a5a #5a5a5a 0 1;
#X obj 158 106 metro 1000;
#X obj 132 242 spigot;
#X obj 249 42 loadbang;
#X obj 43 161 random 100;
#X obj 43 132 metro 100;
#X obj 43 242 line;
#X obj 43 216 pack;
#X floatatom 28 62 5 0 0 0 - - - 12;
#X obj 43 271 * 0.01;
#X obj 28 22 inlet rate of change;
#X floatatom 171 319 13 0 0 0 - - - 12;
#X obj 171 291 line;
#X obj 321 242 sig~;
#X obj 321 271 *~;
#X obj 367 291 snapshot~;
#X obj 321 92 metro 10;
#X obj 367 350 outlet;
#X obj 367 320 change;
#X msg 171 260 \$1 10000;
#X connect 0 0 1 0;
#X connect 1 0 2 0;
#X connect 2 0 4 1;
#X connect 2 0 7 0;
#X connect 3 0 0 0;
#X connect 4 0 21 0;
#X connect 5 0 3 0;
#X connect 5 0 18 0;
#X connect 6 0 9 0;
#X connect 7 0 6 0;
#X connect 8 0 11 0;
#X connect 9 0 8 0;
#X connect 10 0 7 1;
#X connect 10 0 9 1;
#X connect 11 0 4 0;
#X connect 12 0 10 0;
#X connect 13 0 15 0;
#X connect 14 0 13 0;
#X connect 15 0 16 0;
#X connect 15 0 16 1;
#X connect 16 0 17 0;
#X connect 17 0 20 0;
#X connect 18 0 17 0;
#X connect 20 0 19 0;
#X connect 21 0 14 0;
#X restore 494 1038 pd random_movement;
#X floatatom 494 1067 11 0 0 0 - - - 16;
#X floatatom 494 1103 12 0 0 0 - - - 16;
#X obj 494 980 loadbang;
#X msg 494 1009 10000;
#X obj 494 1136 * 3;
#X obj 494 1166 - 1.5;
#X obj 478 1313 s ringing_tone_transpose;
#X obj -5 361 r ringing_tone_transpose;
#N canvas 733 172 450 300 random_movement 0;
#X obj 158 135 random 100;
#X obj 158 169 > 60;
#X obj 158 198 tgl 25 0 empty empty empty 17 7 0 10 #e3dfd9 #5a5a5a #5a5a5a 0 1;
#X obj 158 106 metro 1000;
#X obj 132 242 spigot;
#X obj 249 42 loadbang;
#X obj 43 161 random 100;
#X obj 43 132 metro 100;
#X obj 43 242 line;
#X obj 43 216 pack;
#X floatatom 28 62 5 0 0 0 - - - 12;
#X obj 43 271 * 0.01;
#X obj 28 22 inlet rate of change;
#X floatatom 171 319 13 0 0 0 - - - 12;
#X obj 171 291 line;
#X obj 321 242 sig~;
#X obj 321 271 *~;
#X obj 367 291 snapshot~;
#X obj 321 92 metro 10;
#X obj 367 350 outlet;
#X obj 367 320 change;
#X msg 171 260 \$1 20000;
#X connect 0 0 1 0;
#X connect 1 0 2 0;
#X connect 2 0 4 1;
#X connect 2 0 7 0;
#X connect 3 0 0 0;
#X connect 4 0 21 0;
#X connect 5 0 3 0;
#X connect 5 0 18 0;
#X connect 6 0 9 0;
#X connect 7 0 6 0;
#X connect 8 0 11 0;
#X connect 9 0 8 0;
#X connect 10 0 7 1;
#X connect 10 0 9 1;
#X connect 10 0 3 1;
#X connect 11 0 4 0;
#X connect 12 0 10 0;
#X connect 13 0 15 0;
#X connect 14 0 13 0;
#X connect 15 0 16 0;
#X connect 15 0 16 1;
#X connect 16 0 17 0;
#X connect 17 0 20 0;
#X connect 18 0 17 0;
#X connect 20 0 19 0;
#X connect 21 0 14 0;
#X restore 751 1052 pd random_movement;
#X floatatom 751 1081 11 0 0 0 - - - 16;
#X floatatom 751 1117 12 0 0 0 - - - 16;
#X obj 751 994 loadbang;
#X obj 751 1150 * 3;
#X obj 751 1180 - 1.5;
#X obj 751 1302 s unknown_transpose;
#X msg 751 1023 100000;
#X obj 751 1218 clip -1 1;
#X obj 494 1199 clip -1 1;
#X obj -386 456 throw~ left;
#X obj -477 461 throw~ right;
#X obj -427 343 *~;
#X obj -386 343 *~;
#X obj -293 269 r~ call_waiting_volume;
#X obj -455 257 r~ call_waiting_volume;
#X obj 1327 331 *~ 2;
#X obj 1324 370 -~ 1;
#X obj 1412 438 + 0.4;
#X obj 1312 497 *~ 0.2;
#X msg 425 -121 \; unknown_dry_mix 1 \; unknown_delay 1000 \; unknown_fb 0.4 \; unknown_filter_freq 1000 \; unknown_filter_res 2 \; unknown_transpose 0 \; unknown_delay_pp 750 \; unknown_fb_pp 0.8 \;;
#X msg -172 -121 \; ringing_tone_dry_mix 1 \; ringing_tone_delay 1111 \; ringing_tone_fb 0.4 \; ringing_tone_filter_freq 2000 \; ringing_tone_filter_res 1 \; ringing_tone_transpose -1 \; ringing_tone_delay_pp 1500 \; ringing_tone_fb_pp 0.8 \;;
#X obj 355 512 bela_pingpong~ 1100 0.6, f 51;
#X msg 31 -121 \; inter_tone_dry_mix 1 \; inter_tone_delay 1320 \; inter_tone_fb 0.95 \; inter_tone_filter_freq 1500 \; inter_tone_filter_res 2 \; inter_tone_transpose 4 \; inter_tone_delay_pp 1000 \; inter_tone_fb_pp 0.6 \;;
#X obj -52 310 *~ 0.4;
#X obj -299 192 *~ 0.5;
#X obj -172 512 bela_pingpong~ 5000 0.3, f 51;
#X obj 1511 819 + 0.3;
#X obj 1511 849 clip 0 0.6;
#X obj 1192 790 * 0.4;
#X obj 974 819 + 0.2;
#X obj 199 383 r window;
#X obj 788 383 r window;
#X obj 1153 383 r window;
#X obj 1146 605 s window;
#X obj 425 703 *~ 0.3;
#X connect 0 0 2 0;
#X connect 0 0 177 0;
#X connect 1 0 178 0;
#X connect 2 0 1 0;
#X connect 5 0 15 0;
#X connect 6 0 16 0;
#X connect 7 0 2 4;
#X connect 8 0 2 5;
#X connect 9 0 178 1;
#X connect 10 0 178 2;
#X connect 11 0 76 0;
#X connect 12 0 76 1;
#X connect 13 0 2 1;
#X connect 14 0 13 0;
#X connect 15 0 2 2;
#X connect 16 0 2 3;
#X connect 17 0 1 1;
#X connect 18 0 141 0;
#X connect 19 0 142 0;
#X connect 20 0 101 0;
#X connect 21 0 176 0;
#X connect 21 0 23 0;
#X connect 22 0 174 0;
#X connect 23 0 22 0;
#X connect 26 0 135 0;
#X connect 27 0 136 0;
#X connect 28 0 31 0;
#X connect 28 0 187 0;
#X connect 29 0 30 0;
#X connect 30 0 34 0;
#X connect 30 1 35 0;
#X connect 31 0 29 0;
#X connect 34 0 137 0;
#X connect 35 0 138 0;
#X connect 36 0 39 0;
#X connect 39 0 37 0;
#X connect 39 0 38 0;
#X connect 40 0 41 0;
#X connect 41 0 42 0;
#X connect 42 0 43 0;
#X connect 43 0 59 0;
#X connect 45 0 40 0;
#X connect 46 0 45 0;
#X connect 47 0 48 0;
#X connect 48 0 49 0;
#X connect 49 0 90 0;
#X connect 50 0 54 0;
#X connect 52 0 22 1;
#X connect 53 0 51 0;
#X connect 54 0 47 0;
#X connect 55 0 170 0;
#X connect 56 0 57 0;
#X connect 57 0 55 0;
#X connect 58 0 100 0;
#X connect 59 0 44 0;
#X connect 60 0 23 1;
#X connect 61 0 23 2;
#X connect 62 0 23 3;
#X connect 63 0 23 4;
#X connect 64 0 23 5;
#X connect 65 0 174 1;
#X connect 66 0 174 2;
#X connect 67 0 29 1;
#X connect 68 0 30 1;
#X connect 69 0 30 2;
#X connect 70 0 31 1;
#X connect 71 0 31 2;
#X connect 72 0 31 3;
#X connect 73 0 31 4;
#X connect 74 0 31 5;
#X connect 75 0 39 0;
#X connect 77 0 88 0;
#X connect 78 0 79 0;
#X connect 79 0 77 0;
#X connect 80 0 181 0;
#X connect 81 0 82 0;
#X connect 82 0 80 0;
#X connect 83 0 86 0;
#X connect 84 0 85 0;
#X connect 85 0 83 0;
#X connect 86 0 179 0;
#X connect 87 0 122 0;
#X connect 87 0 133 0;
#X connect 88 0 182 0;
#X connect 89 0 121 0;
#X connect 89 0 132 0;
#X connect 90 0 91 0;
#X connect 91 0 53 0;
#X connect 92 0 168 0;
#X connect 93 0 171 0;
#X connect 94 0 103 0;
#X connect 95 0 96 0;
#X connect 96 0 97 0;
#X connect 97 0 118 0;
#X connect 98 0 18 1;
#X connect 98 0 19 1;
#X connect 99 0 39 1;
#X connect 101 0 173 0;
#X connect 101 1 175 0;
#X connect 101 2 172 0;
#X connect 103 0 95 0;
#X connect 103 0 124 0;
#X connect 104 0 107 0;
#X connect 105 0 106 0;
#X connect 106 0 119 0;
#X connect 107 0 112 0;
#X connect 107 0 129 0;
#X connect 108 0 111 0;
#X connect 109 0 110 0;
#X connect 110 0 120 0;
#X connect 111 0 113 0;
#X connect 111 0 127 0;
#X connect 112 0 105 0;
#X connect 113 0 109 0;
#X connect 116 0 26 1;
#X connect 116 0 27 1;
#X connect 118 0 102 0;
#X connect 119 0 114 0;
#X connect 120 0 115 0;
#X connect 124 0 125 0;
#X connect 125 0 140 0;
#X connect 126 0 139 0;
#X connect 127 0 128 0;
#X connect 128 0 130 0;
#X connect 129 0 126 0;
#X connect 130 0 113 1;
#X connect 131 0 87 0;
#X connect 135 0 24 0;
#X connect 136 0 25 0;
#X connect 137 0 32 0;
#X connect 138 0 33 0;
#X connect 139 0 112 1;
#X connect 140 0 95 1;
#X connect 141 0 3 0;
#X connect 142 0 4 0;
#X connect 143 0 144 0;
#X connect 144 0 145 0;
#X connect 145 0 148 0;
#X connect 146 0 147 0;
#X connect 147 0 143 0;
#X connect 148 0 149 0;
#X connect 149 0 161 0;
#X connect 151 0 17 0;
#X connect 152 0 153 0;
#X connect 153 0 154 0;
#X connect 154 0 156 0;
#X connect 155 0 159 0;
#X connect 156 0 157 0;
#X connect 157 0 160 0;
#X connect 159 0 152 0;
#X connect 160 0 158 0;
#X connect 161 0 150 0;
#X connect 164 0 162 0;
#X connect 165 0 163 0;
#X connect 166 0 165 1;
#X connect 167 0 164 1;
#X connect 168 0 169 0;
#X connect 169 0 93 0;
#X connect 170 0 58 0;
#X connect 171 0 39 0;
#X connect 174 0 26 0;
#X connect 174 1 27 0;
#X connect 176 0 165 0;
#X connect 177 0 164 0;
#X connect 178 0 18 0;
#X connect 178 1 19 0;
#X connect 179 0 180 0;
#X connect 180 0 123 0;
#X connect 180 0 134 0;
#X connect 181 0 131 0;
#X connect 182 0 89 0;
#X connect 183 0 1 2;
#X connect 184 0 22 2;
#X connect 185 0 29 2;
#X connect 187 0 76 1;
