#N canvas 827 239 527 327 12;
#X obj 276 288 inlet~ signal;
#X obj 470 251 inlet control;
#X obj 470 280 sig~;
#X obj 470 309 lop~ 1;
#X obj 470 338 *~ 0.25;
#X obj 470 367 -~ 0.25;
#X obj 470 396 cos~;
#X obj 286 431 -~ 0.25;
#X obj 286 460 cos~;
#X obj 276 508 *~;
#X obj 422 512 *~;
#X obj 276 537 outlet~ left;
#X obj 422 545 outlet~ right;
#X connect 0 0 9 0;
#X connect 0 0 10 0;
#X connect 1 0 2 0;
#X connect 2 0 3 0;
#X connect 3 0 4 0;
#X connect 4 0 5 0;
#X connect 5 0 6 0;
#X connect 5 0 7 0;
#X connect 6 0 10 1;
#X connect 7 0 8 0;
#X connect 8 0 9 1;
#X connect 9 0 11 0;
#X connect 10 0 12 0;
