#N canvas 827 239 527 327 12;
#X obj 229 161 inlet~ signal;
#X obj 229 678 outlet~ signal;
#X obj 875 161 inlet filter frequency;
#X obj 1027 161 inlet filter resonance;
#X obj 421 517 expr~ tanh($v1);
#X text 539 519 soft clipping;
#X obj 421 549 hip~ 5;
#X obj 339 247 delwrite~ \$0-delay 5000;
#X obj 421 377 delread4~ \$0-delay;
#X obj 533 649 send~ \$0-feedback;
#X obj 374 218 receive~ \$0-feedback;
#X text 326 160 input signal;
#X text 515 250 writing to a delay line;
#X text 524 217 out feedback recieve;
#X text 273 272 dry mix;
#X obj 421 161 inlet dry/wet Mix;
#X obj 229 274 *~ 0.6;
#X obj 273 236 clip 0 1;
#X obj 443 340 clip 0 5000;
#X obj 573 161 inlet delay time;
#X obj 577 323 clip 20 5000;
#X obj 567 404 clip 1 10;
#X obj 477 597 *~ 0.7;
#X obj 721 161 inlet feedback;
#X text 494 492 resonant filter;
#X obj 421 489 vcf~ 1;
#X obj 1181 186 loadbang;
#X msg 965 286 3000;
#X msg 887 270 250;
#X connect 0 0 7 0;
#X connect 0 0 16 0;
#X connect 2 0 20 0;
#X connect 3 0 21 0;
#X connect 4 0 6 0;
#X connect 6 0 1 0;
#X connect 6 0 22 0;
#X connect 8 0 25 0;
#X connect 10 0 7 0;
#X connect 15 0 17 0;
#X connect 16 0 1 0;
#X connect 17 0 16 1;
#X connect 18 0 8 0;
#X connect 19 0 18 0;
#X connect 20 0 25 1;
#X connect 21 0 25 2;
#X connect 22 0 9 0;
#X connect 23 0 22 1;
#X connect 25 0 4 0;
#X connect 26 0 27 0;
#X connect 26 0 28 0;
#X connect 27 0 20 0;
#X connect 28 0 18 0;
