#N canvas 827 239 527 327 12;
#X obj 590 178 *~;
#X obj 663 178 *~;
#X obj 728 140 -~;
#X obj 535 48 inlet~ dry;
#X obj 649 48 inlet~ wet;
#X obj 806 113 clip~ 0 1;
#X obj 815 48 inlet xfade;
#X obj 815 84 sig~ 0.5;
#X obj 728 98 sig~ 1;
#X obj 663 238 outlet~ mixed signal;
#X connect 0 0 9 0;
#X connect 1 0 9 0;
#X connect 2 0 1 1;
#X connect 3 0 1 0;
#X connect 4 0 0 0;
#X connect 5 0 2 1;
#X connect 5 0 0 1;
#X connect 6 0 7 0;
#X connect 7 0 5 0;
#X connect 8 0 2 0;
