#N canvas 827 239 527 327 12;
#X obj 27 273 +~;
#X obj 69 272 +~;
#X obj 87 242 *~;
#X obj 240 178 / 2;
#X obj 87 194 delread4~ \$0-ping;
#X obj 240 330 delread4~ \$0-pong;
#X obj 27 27 inlet~;
#X obj 27 384 outlet~;
#X obj 240 382 outlet~;
#X obj 240 112 max 0;
#X obj 240 86 f \$1;
#X obj 303 89 f \$2;
#X obj 303 156 clip -1 1;
#X obj 69 302 delwrite~ \$0-pong 5000;
#X obj 38 330 delwrite~ \$0-ping 5000;
#X msg 358 192 \$1 50;
#X obj 358 221 line;
#X obj 358 250 sig~;
#X msg 240 235 \$1 50;
#X obj 240 264 line;
#X obj 240 293 sig~;
#X msg 87 105 \$1 50;
#X obj 87 134 line;
#X obj 87 163 sig~;
#X obj 358 50 loadbang;
#X obj 240 27 inlet time;
#X obj 303 27 inlet feedback;
#X connect 0 0 7 0;
#X connect 0 0 14 0;
#X connect 1 0 13 0;
#X connect 2 0 0 1;
#X connect 2 0 1 1;
#X connect 3 0 18 0;
#X connect 4 0 2 0;
#X connect 5 0 8 0;
#X connect 6 0 0 0;
#X connect 6 0 1 0;
#X connect 9 0 3 0;
#X connect 9 0 21 0;
#X connect 10 0 9 0;
#X connect 11 0 12 0;
#X connect 12 0 15 0;
#X connect 15 0 16 0;
#X connect 16 0 17 0;
#X connect 17 0 2 1;
#X connect 18 0 19 0;
#X connect 19 0 20 0;
#X connect 20 0 5 0;
#X connect 21 0 22 0;
#X connect 22 0 23 0;
#X connect 23 0 4 0;
#X connect 24 0 11 0;
#X connect 24 0 10 0;
#X connect 25 0 10 0;
#X connect 26 0 11 0;
