#N canvas 827 239 527 327 12;
#X declare -stdpath ./;
#X floatatom 546 273 6 0 0 0 - - - 0;
#X obj 546 644 *~;
#X obj 669 570 line~;
#X floatatom 669 325 6 0 0 0 - - - 0;
#X text 655 201 PITCH SHIFTER;
#X obj 546 329 exp;
#X floatatom 546 355 6 0 0 0 - - - 0;
#X obj 546 445 /;
#X obj 594 382 * 0.001;
#X obj 732 634 line~;
#X floatatom 732 558 0 0 0 0 - - - 0;
#X obj 732 532 r delay;
#X obj 546 681 +~;
#X obj 490 696 cos~;
#X obj 490 723 *~;
#X obj 609 767 +~;
#X obj 610 570 wrap~;
#X obj 686 629 *~;
#X obj 714 689 +~;
#X obj 628 706 cos~;
#X obj 628 733 *~;
#X obj 915 215 loadbang;
#X obj 594 408 t b f;
#X floatatom 546 471 6 0 0 0 - - - 0;
#X obj 610 543 +~ 0.5;
#X obj 490 644 -~ 0.5;
#X obj 490 670 *~ 0.5;
#X obj 628 629 -~ 0.5;
#X obj 628 678 *~ 0.5;
#X obj 546 382 - 1;
#X obj 546 303 * 0.05776;
#X obj 546 408 * -1;
#X text 499 349 speed;
#X text 492 363 change;
#X text 474 462 tape head;
#X obj 546 502 phasor~;
#X obj 732 585 max 1.5;
#X text 735 491 delay;
#X text 732 509 (msec);
#X obj 669 352 max 1;
#X text 474 475 rotation freq, f 9;
#X obj 908 327 declare -stdpath ./;
#X text 720 325 <-- window (msec);
#X msg 669 543 \$1 200;
#X msg 732 609 \$1 200;
#X text 596 273 <-- transposition in halftones;
#X obj 628 818 outlet~;
#X obj 490 217 delwrite~ \$0-pitch_line 5000;
#X obj 714 718 delread4~ \$0-pitch_line, f 9;
#X obj 546 707 delread4~ \$0-pitch_line, f 9;
#X obj 546 241 inlet transposition;
#X obj 669 299 inlet window;
#X obj 490 186 inlet~;
#X obj 692 241 r transpose;
#X obj 817 276 r window;
#X msg 915 241 \; transpose 0 \; window 100 \; delay 0;
#X connect 0 0 30 0;
#X connect 1 0 12 0;
#X connect 2 0 1 1;
#X connect 2 0 17 1;
#X connect 3 0 39 0;
#X connect 5 0 6 0;
#X connect 6 0 29 0;
#X connect 7 0 23 0;
#X connect 8 0 22 0;
#X connect 9 0 12 1;
#X connect 9 0 18 1;
#X connect 10 0 36 0;
#X connect 11 0 10 0;
#X connect 12 0 49 0;
#X connect 13 0 14 0;
#X connect 14 0 15 0;
#X connect 15 0 46 0;
#X connect 16 0 17 0;
#X connect 16 0 27 0;
#X connect 17 0 18 0;
#X connect 18 0 48 0;
#X connect 19 0 20 0;
#X connect 20 0 15 1;
#X connect 21 0 55 0;
#X connect 22 0 7 0;
#X connect 22 1 7 1;
#X connect 23 0 35 0;
#X connect 24 0 16 0;
#X connect 25 0 26 0;
#X connect 26 0 13 0;
#X connect 27 0 28 0;
#X connect 28 0 19 0;
#X connect 29 0 31 0;
#X connect 30 0 5 0;
#X connect 31 0 7 0;
#X connect 35 0 1 0;
#X connect 35 0 25 0;
#X connect 35 0 24 0;
#X connect 36 0 44 0;
#X connect 39 0 8 0;
#X connect 39 0 43 0;
#X connect 43 0 2 0;
#X connect 44 0 9 0;
#X connect 48 0 20 1;
#X connect 49 0 14 1;
#X connect 50 0 0 0;
#X connect 51 0 3 0;
#X connect 52 0 47 0;
#X connect 53 0 0 0;
#X connect 54 0 3 0;
